<svg version="1.1" id="Layer_1" xmlns="http://www.w3.org/2000/svg" xmlns:xlink="http://www.w3.org/1999/xlink" x="0px" y="0px"
	 width="100%" viewBox="0 0 114 114" enable-background="new 0 0 114 114" xml:space="preserve">
<path fill="#00A42D" opacity="1.000000" stroke="none" 
	d="
M17.000000,115.000000 
	C11.675951,115.000000 6.351902,115.000000 1.020889,115.000000 
	C1.013926,77.075439 1.013926,39.150867 1.013926,1.113149 
	C38.999767,1.113149 76.999832,1.113149 115.000000,1.113149 
	C115.000000,5.400172 115.000000,9.725958 114.633125,14.539264 
	C108.840050,19.691965 103.499947,24.462494 97.960907,28.989609 
	C93.377914,32.735329 90.930687,39.207653 84.014481,39.540039 
	C83.607109,24.896490 86.731987,27.309166 71.503632,26.940447 
	C67.957924,26.854595 66.908401,28.248432 66.950325,31.627369 
	C67.084244,42.420341 66.982857,53.216240 66.642342,64.067360 
	C64.878510,65.085350 63.444672,66.046989 62.006844,66.539017 
	C62.001747,62.930264 62.111309,59.786308 61.974636,56.653088 
	C61.747200,51.439373 61.361855,46.232548 60.842964,41.011158 
	C60.642921,40.999496 60.242161,40.997253 60.138302,40.599670 
	C60.336899,32.623959 55.232956,29.971560 48.805435,27.946278 
	C40.871754,27.457558 33.258671,27.120708 25.651804,27.227270 
	C24.753193,27.239861 23.134262,29.676344 23.122055,31.000948 
	C22.953440,49.298084 23.044317,67.597420 22.970694,85.895821 
	C22.958786,88.855446 23.997812,90.153427 27.041834,90.039818 
	C30.695490,89.903442 34.359413,90.042229 37.955742,90.396835 
	C34.766964,94.149933 31.549498,97.489441 28.538496,101.005745 
	C24.606804,105.597260 20.838564,110.328743 17.000000,115.000000 
z"/>
<path fill="#07AA32" opacity="1.000000" stroke="none" 
	d="
M62.010838,67.008629 
	C63.444672,66.046989 64.878510,65.085350 66.650131,64.534744 
	C66.995155,71.821877 67.010902,78.697990 67.004707,85.574074 
	C67.002731,87.766212 66.842445,90.025009 69.949753,90.416008 
	C67.499390,93.459312 65.083664,96.140190 62.734165,98.877899 
	C58.136570,104.235161 53.575932,109.624146 49.000000,115.000000 
	C38.645771,115.000000 28.291544,115.000000 17.468658,115.000000 
	C20.838564,110.328743 24.606804,105.597260 28.538496,101.005745 
	C31.549498,97.489441 34.766964,94.149933 38.419834,90.383148 
	C43.624115,89.501694 48.301159,88.968895 53.249485,88.255783 
	C60.622265,86.310783 59.668507,80.258835 60.603806,75.288620 
	C60.910137,75.576759 61.015568,75.722656 61.158276,75.794800 
	C61.300598,75.866745 61.480289,75.864761 61.643600,75.895187 
	C61.766018,72.932999 61.888428,69.970818 62.010838,67.008629 
z"/>
<path fill="#0DB738" opacity="1.000000" stroke="none" 
	d="
M93.000000,115.000000 
	C86.312355,115.000000 79.624710,115.000000 72.481133,114.637108 
	C74.297928,111.546989 76.471352,108.728989 78.864052,106.111427 
	C83.839622,100.668274 88.931396,95.331337 93.989861,89.715225 
	C94.004326,89.479729 94.039703,89.008194 94.380463,88.946762 
	C99.551498,84.686226 104.312180,80.402649 109.250465,76.334656 
	C110.937698,74.944771 113.070679,74.096008 115.000000,73.000000 
	C115.000000,79.021156 115.000000,85.042305 114.659332,91.589020 
	C109.458427,96.663780 104.423248,101.044121 99.805847,105.827721 
	C97.183876,108.544067 95.245972,111.920715 93.000000,115.000000 
z"/>
<path fill="#03A930" opacity="1.000000" stroke="none" 
	d="
M84.024033,40.005344 
	C90.930687,39.207653 93.377914,32.735329 97.960907,28.989609 
	C103.499947,24.462494 108.840050,19.691965 114.633125,15.013391 
	C115.000000,21.354399 115.000000,27.708796 114.654449,34.589836 
	C112.775330,36.088375 110.995399,36.816463 109.750679,38.074211 
	C104.258347,43.624065 99.068947,49.480114 93.463394,54.908833 
	C90.658951,57.624805 87.196938,59.661785 84.019989,61.536751 
	C84.013100,54.046879 84.018562,47.026112 84.024033,40.005344 
z"/>
<path fill="#09B135" opacity="1.000000" stroke="none" 
	d="
M93.975395,89.950729 
	C88.931396,95.331337 83.839622,100.668274 78.864052,106.111427 
	C76.471352,108.728989 74.297928,111.546989 72.012604,114.637108 
	C64.645752,115.000000 57.291500,115.000000 49.468624,115.000000 
	C53.575932,109.624146 58.136570,104.235161 62.734165,98.877899 
	C65.083664,96.140190 67.499390,93.459312 70.416626,90.396767 
	C78.623848,90.010765 86.299622,89.980743 93.975395,89.950729 
z"/>
<path fill="#06AD32" opacity="1.000000" stroke="none" 
	d="
M84.032341,62.005859 
	C87.196938,59.661785 90.658951,57.624805 93.463394,54.908833 
	C99.068947,49.480114 104.258347,43.624065 109.750679,38.074211 
	C110.995399,36.816463 112.775330,36.088375 114.654449,35.058243 
	C115.000000,40.688042 115.000000,46.376080 114.635567,52.545090 
	C113.230492,53.475525 111.958740,53.682285 111.188522,54.415730 
	C107.507317,57.921200 103.869186,61.482426 100.394371,65.191185 
	C96.825356,69.000504 93.463097,73.003517 89.542175,76.943550 
	C87.198967,77.049858 85.323936,77.134369 83.475014,77.171600 
	C83.501122,77.124321 83.413673,77.196350 83.557190,76.737755 
	C83.811256,71.521393 83.921799,66.763626 84.032341,62.005859 
z"/>
<path fill="#09B135" opacity="1.000000" stroke="none" 
	d="
M90.010361,76.921761 
	C93.463097,73.003517 96.825356,69.000504 100.394371,65.191185 
	C103.869186,61.482426 107.507317,57.921200 111.188522,54.415730 
	C111.958740,53.682285 113.230492,53.475525 114.635567,53.013031 
	C115.000000,59.354397 115.000000,65.708794 115.000000,72.531601 
	C113.070679,74.096008 110.937698,74.944771 109.250465,76.334656 
	C104.312180,80.402649 99.551498,84.686226 94.362595,88.485611 
	C93.997940,85.753181 93.860664,83.411537 94.018715,81.090004 
	C94.221939,78.104889 93.030151,76.693291 90.010361,76.921761 
z"/>
<path fill="#10BB3B" opacity="1.000000" stroke="none" 
	d="
M93.468781,115.000000 
	C95.245972,111.920715 97.183876,108.544067 99.805847,105.827721 
	C104.423248,101.044121 109.458427,96.663780 114.659332,92.057297 
	C115.000000,99.591278 115.000000,107.182564 115.000000,115.000000 
	C107.980797,115.000000 100.959183,115.000000 93.468781,115.000000 
z"/>
<path fill="#FBFDFB" opacity="1.000000" stroke="none" 
	d="
M60.419239,75.114059 
	C59.668507,80.258835 60.622265,86.310783 52.774521,88.269928 
	C42.825367,88.464363 33.622456,88.464363 24.506348,88.464363 
	C24.506348,68.267403 24.506348,48.257034 24.506348,28.231264 
	C32.935566,28.231264 41.031734,28.231264 49.127903,28.231264 
	C55.232956,29.971560 60.336899,32.623959 60.090847,40.988152 
	C60.256374,42.797215 60.365501,43.820213 60.405323,45.316933 
	C60.363758,55.565121 60.391499,65.339592 60.419239,75.114059 
M38.883305,38.902645 
	C39.003201,52.252415 39.123096,65.602188 39.528267,79.621773 
	C43.730083,80.732651 45.662838,78.392883 45.744312,74.767151 
	C45.990704,63.801807 46.040386,52.826542 45.863087,41.860050 
	C45.797478,37.801895 43.206409,36.546043 38.883305,38.902645 
z"/>
<path fill="#018C1B" opacity="1.000000" stroke="none" 
	d="
M89.542175,76.943550 
	C93.030151,76.693291 94.221939,78.104889 94.018715,81.090004 
	C93.860664,83.411537 93.997940,85.753181 94.021828,88.547043 
	C94.039703,89.008194 94.004326,89.479729 93.989861,89.715225 
	C86.299622,89.980743 78.623848,90.010765 70.481201,90.060028 
	C66.842445,90.025009 67.002731,87.766212 67.004707,85.574074 
	C67.010902,78.697990 66.995155,71.821877 66.980118,64.478394 
	C66.982857,53.216240 67.084244,42.420341 66.950325,31.627369 
	C66.908401,28.248432 67.957924,26.854595 71.503632,26.940447 
	C86.731987,27.309166 83.607109,24.896490 84.014481,39.540039 
	C84.018562,47.026112 84.013100,54.046879 84.019989,61.536755 
	C83.921799,66.763626 83.811256,71.521393 83.313873,76.395485 
	C82.927040,60.434536 82.927040,44.357262 82.927040,28.305595 
	C77.631142,28.305595 73.060585,28.305595 68.483368,28.305595 
	C68.483368,48.656475 68.483368,68.693359 68.483368,88.694809 
	C76.713966,88.694809 84.616798,88.694809 92.840553,88.694809 
	C92.840553,86.751183 92.840553,85.116264 92.840553,83.481346 
	C92.840553,81.719337 92.840553,79.957329 92.840553,78.484047 
	C89.247871,78.000069 86.348389,77.609482 83.448906,77.218887 
	C85.323936,77.134369 87.198967,77.049858 89.542175,76.943550 
z"/>
<path fill="#018C1B" opacity="1.000000" stroke="none" 
	d="
M48.805435,27.946278 
	C41.031734,28.231264 32.935566,28.231264 24.506348,28.231264 
	C24.506348,48.257034 24.506348,68.267403 24.506348,88.464363 
	C33.622456,88.464363 42.825367,88.464363 52.503242,88.450226 
	C48.301159,88.968895 43.624115,89.501694 38.482979,90.048187 
	C34.359413,90.042229 30.695490,89.903442 27.041834,90.039818 
	C23.997812,90.153427 22.958786,88.855446 22.970694,85.895821 
	C23.044317,67.597420 22.953440,49.298084 23.122055,31.000948 
	C23.134262,29.676344 24.753193,27.239861 25.651804,27.227270 
	C33.258671,27.120708 40.871754,27.457558 48.805435,27.946278 
z"/>
<path fill="#009B26" opacity="1.000000" stroke="none" 
	d="
M60.603806,75.288620 
	C60.391499,65.339592 60.363758,55.565121 60.563240,45.035015 
	C60.874645,43.193859 60.958828,42.108337 61.043007,41.022820 
	C61.361855,46.232548 61.747200,51.439373 61.974636,56.653088 
	C62.111309,59.786308 62.001747,62.930264 62.006844,66.539017 
	C61.888428,69.970818 61.766018,72.932999 61.643600,75.895187 
	C61.480289,75.864761 61.300598,75.866745 61.158276,75.794800 
	C61.015568,75.722656 60.910137,75.576759 60.603806,75.288620 
z"/>
<path fill="#07AA32" opacity="1.000000" stroke="none" 
	d="
M60.842964,41.011158 
	C60.958828,42.108337 60.874645,43.193859 60.632545,44.561295 
	C60.365501,43.820213 60.256374,42.797215 60.194706,41.385735 
	C60.242161,40.997253 60.642921,40.999496 60.842964,41.011158 
z"/>
<path fill="#08A12F" opacity="1.000000" stroke="none" 
	d="
M39.250774,38.033428 
	C43.206409,36.546043 45.797478,37.801895 45.863087,41.860050 
	C46.040386,52.826542 45.990704,63.801807 45.744312,74.767151 
	C45.662838,78.392883 43.730083,80.732651 39.589340,78.933670 
	C39.766945,68.782784 39.968822,59.319912 39.959183,49.857262 
	C39.955166,45.915745 39.500515,41.974693 39.250774,38.033428 
z"/>
<path fill="#018C1B" opacity="1.000000" stroke="none" 
	d="
M39.067039,38.468037 
	C39.500515,41.974693 39.955166,45.915745 39.959183,49.857262 
	C39.968822,59.319912 39.766945,68.782784 39.446705,78.598755 
	C39.123096,65.602188 39.003201,52.252415 39.067039,38.468037 
z"/>
<path fill="#F7FBF8" opacity="1.000000" stroke="none" 
	d="
M83.475014,77.171600 
	C86.348389,77.609482 89.247871,78.000069 92.840553,78.484047 
	C92.840553,79.957329 92.840553,81.719337 92.840553,83.481346 
	C92.840553,85.116264 92.840553,86.751183 92.840553,88.694809 
	C84.616798,88.694809 76.713966,88.694809 68.483368,88.694809 
	C68.483368,68.693359 68.483368,48.656475 68.483368,28.305595 
	C73.060585,28.305595 77.631142,28.305595 82.927040,28.305595 
	C82.927040,44.357262 82.927040,60.434536 83.170357,76.854080 
	C83.413673,77.196350 83.501122,77.124321 83.475014,77.171600 
z"/>
</svg>